<?xml version="1.0" encoding="utf-8"?>
<!-- Generator: Adobe Illustrator 23.0.3, SVG Export Plug-In . SVG Version: 6.00 Build 0)  -->
<svg version="1.1" id="Layer_1" xmlns="http://www.w3.org/2000/svg" xmlns:xlink="http://www.w3.org/1999/xlink" x="0px" y="0px"
	 viewBox="0 0 703.7 135.7" style="enable-background:new 0 0 703.7 135.7;" xml:space="preserve">
<style type="text/css">
	.st0{fill:#FFFFFF;}
	.st1{display:none;fill:#FFFFFF;}
</style>
<g>
	<path class="st0" d="M58.2,30.6H19.9v33.9h35.4v10.3H19.9v43.4H8.4v-98h49.8L58.2,30.6L58.2,30.6z"/>
	<path class="st0" d="M116.3,119.9c-13.9,0-25-4.6-33.4-13.7S70.3,85.1,70.3,70.4c0-15.8,4.3-28.4,12.8-37.7
		c8.5-9.4,20.1-14.1,34.8-14.1c13.5,0,24.4,4.6,32.7,13.7c8.3,9.1,12.4,21,12.4,35.8c0,16-4.2,28.6-12.7,37.9
		S130.5,119.9,116.3,119.9z M117.1,29c-10.3,0-18.7,3.7-25.1,11.1c-6.4,7.4-9.6,17.2-9.6,29.3s3.1,21.8,9.4,29.2
		c6.3,7.4,14.4,11,24.5,11c10.8,0,19.2-3.5,25.4-10.5s9.3-16.8,9.3-29.5c0-12.9-3-23-9-30C136,32.5,127.7,29,117.1,29z"/>
	<path class="st0" d="M252.6,118.2h-13.7l-16.4-27.5c-1.5-2.6-3-4.7-4.4-6.5c-1.4-1.8-2.9-3.3-4.3-4.4s-3.1-2-4.8-2.5
		c-1.7-0.5-3.6-0.8-5.8-0.8h-9.4v41.7h-11.5v-98h29.3c4.3,0,8.2,0.5,11.9,1.6s6.8,2.7,9.4,4.9s4.8,4.9,6.3,8.2
		c1.5,3.3,2.3,7.1,2.3,11.5c0,3.4-0.5,6.5-1.5,9.4c-1,2.8-2.5,5.4-4.4,7.6c-1.9,2.2-4.2,4.1-6.8,5.7s-5.7,2.8-9,3.7V73
		c1.6,0.7,3.1,1.6,4.3,2.5c1.2,0.9,2.4,2,3.4,3.3s2.2,2.7,3.3,4.3s2.3,3.5,3.6,5.6L252.6,118.2z M193.8,30.6v35.6h15.6
		c2.9,0,5.5-0.4,8-1.3c2.4-0.9,4.6-2.1,6.3-3.7c1.8-1.6,3.2-3.6,4.2-6c1-2.3,1.5-5,1.5-7.9c0-5.2-1.7-9.3-5.1-12.3
		s-8.3-4.4-14.7-4.4L193.8,30.6L193.8,30.6z"/>
	<path class="st0" d="M337.8,78.6c0,27.5-12.4,41.3-37.3,41.3c-23.8,0-35.7-13.2-35.7-39.7V20.2h11.5v59.2
		c0,20.1,8.5,30.2,25.4,30.2c16.4,0,24.5-9.7,24.5-29.1V20.2h11.5L337.8,78.6L337.8,78.6z"/>
	<path class="st0" d="M462.2,118.2h-11.4V52.5c0-5.2,0.3-11.6,1-19.1h-0.3c-1.1,4.4-2.1,7.6-2.9,9.5L415,118.2h-5.6L376,43.4
		c-1-2.2-1.9-5.5-2.9-10.1h-0.3c0.4,3.9,0.5,10.3,0.5,19.2v65.6h-11.1v-98h15.2l30.1,68.4c2.3,5.2,3.8,9.2,4.5,11.8h0.4
		c2-5.4,3.5-9.4,4.7-12l30.7-68.1h14.4L462.2,118.2L462.2,118.2z"/>
	<path class="st1" d="M571.5,20.2v64.7h12.6v10.3h-12.6v23h-11.1v-23h-46.1v-9.7c4.3-4.8,8.6-10,13-15.5c4.4-5.5,8.6-11.1,12.5-16.7
		c4-5.6,7.7-11.3,11.1-16.9s6.3-11,8.6-16.2C559.6,20.2,571.5,20.2,571.5,20.2z M527,84.9h33.4V37c-3.4,6-6.7,11.3-9.7,16
		c-3,4.7-6,9-8.7,12.8c-2.8,3.8-5.4,7.3-7.9,10.4C531.7,79.2,529.3,82.2,527,84.9z"/>
	<path class="st1" d="M641.7,45.9c0-3-0.5-5.6-1.4-7.9c-0.9-2.2-2.2-4.1-3.8-5.6s-3.5-2.6-5.7-3.3s-4.6-1.1-7.1-1.1
		c-2.2,0-4.3,0.3-6.4,0.9s-4.1,1.4-6.1,2.5s-3.9,2.3-5.7,3.8c-1.8,1.5-3.6,3.1-5.2,4.8V28c3.1-3.1,6.7-5.4,10.6-7
		c3.9-1.6,8.7-2.4,14.3-2.4c4,0,7.7,0.6,11.1,1.7s6.4,2.9,8.9,5.1s4.5,5,5.9,8.3s2.2,7,2.2,11.3c0,3.9-0.4,7.4-1.3,10.5
		c-0.9,3.1-2.2,6.1-4,8.9c-1.8,2.8-4.1,5.4-6.8,8c-2.7,2.5-6,5.2-9.6,7.8c-4.6,3.3-8.4,6.1-11.4,8.4c-3,2.3-5.4,4.5-7.1,6.5
		s-3,4.1-3.7,6.1c-0.7,2-1.1,4.4-1.1,7h48.8v10.1h-60.5v-4.8c0-4.2,0.5-7.9,1.4-11.1s2.4-6.2,4.5-9.1c2.1-2.9,4.8-5.7,8.2-8.6
		c3.4-2.9,7.5-6.1,12.5-9.7c3.5-2.6,6.5-5,8.9-7.3c2.4-2.3,4.3-4.7,5.8-7s2.5-4.7,3.1-7.1C641.4,51.1,641.7,48.6,641.7,45.9z"/>
</g>
<image style="overflow:visible;enable-background:new    ;" width="1373" height="836" id="Ellipse_9" xlink:href="7AB60344.png"  transform="matrix(0.1613 0 0 0.1613 479.63 0.79)">
</image>
</svg>
